<svg width="20" height="23" viewBox="0 0 20 23" fill="none" xmlns="http://www.w3.org/2000/svg">
<path d="M4.58333 7.66665V5.49998C4.58333 4.06339 5.15402 2.68564 6.16984 1.66982C7.18566 0.653996 8.56341 0.083313 10 0.083313C11.4366 0.083313 12.8143 0.653996 13.8302 1.66982C14.846 2.68564 15.4167 4.06339 15.4167 5.49998V7.66665H18.6667C18.954 7.66665 19.2295 7.78078 19.4327 7.98395C19.6359 8.18711 19.75 8.46266 19.75 8.74998V21.75C19.75 22.0373 19.6359 22.3128 19.4327 22.516C19.2295 22.7192 18.954 22.8333 18.6667 22.8333H1.33333C1.04602 22.8333 0.770465 22.7192 0.567301 22.516C0.364137 22.3128 0.25 22.0373 0.25 21.75V8.74998C0.25 8.46266 0.364137 8.18711 0.567301 7.98395C0.770465 7.78078 1.04602 7.66665 1.33333 7.66665H4.58333ZM4.58333 9.83331H2.41667V20.6666H17.5833V9.83331H15.4167V12H13.25V9.83331H6.75V12H4.58333V9.83331ZM6.75 7.66665H13.25V5.49998C13.25 4.63803 12.9076 3.81138 12.2981 3.20188C11.6886 2.59239 10.862 2.24998 10 2.24998C9.13805 2.24998 8.3114 2.59239 7.7019 3.20188C7.09241 3.81138 6.75 4.63803 6.75 5.49998V7.66665Z" fill="black"/>
</svg>
